# xmcd
#
# Track frame offsets:
#	150
#	11947
#	23256
#	34746
#	44711
#	56654
#	65518
#	76423
#	88164
#	99640
#	105118
#	111432
#	122929
#	133709
#	144830
#	155679
#	166967
#	177287
#	188707
#	199222
#	212440
#	221192
#	232856
#	244472
#	254694
#	265996
#	276239
#	286231
#	299247
#	310298
#	320966
#	332024
#
# Disc length: 4580 seconds
#
# Revision: 0
# Processed by: cddbd v1.5.2PL0 Copyright (c) Steve Scherf et al.
# Submitted via: EZCDAudioConverter 2.8.0.1
#
DISCID=f411e220
DTITLE=Patsy Cline - 20 Hits and Stop  Look and Listen
DYEAR=1900
DGENRE=Country
TTITLE0=Walking After Midnight
TTITLE1=Don't Ever Leave Me
TTITLE2=Just Out Of Reach
TTITLE3=I'm Blue Again
TTITLE4=Let The Teardrops Fall
TTITLE5=Ain't No Wheels On This Ship
TTITLE6=I Don't Wanna
TTITLE7=I've Loved And Lost Again
TTITLE8=The Heart You Break
TTITLE9=Crazy Dreams (Part I)
TTITLE10=Crazy Dreams (Part II)
TTITLE11=Cry Not For Me
TTITLE12=Gotta Lot Of Rhythm In My Soul
TTITLE13=I Cried All The Way To The Alter
TTITLE14=Honky Tonk Merry-Go-Round
TTITLE15=Stop The World
TTITLE16=3 Cigarettes
TTITLE17=Stranger In My Arms
TTITLE18=Too Many Secrets
TTITLE19=If I Could See The World
TTITLE20=Ain't No Wheels On This Ship
TTITLE21=Never No More
TTITLE22=In Care Of The Blues
TTITLE23=Three Cigarettes In An Ashtray
TTITLE24=Just Out Of Reach (Of My Two Open Arms)
TTITLE25=Too Many Secrets
TTITLE26=Turn The Cards Slowly
TTITLE27=If I Could See The World (Through The Eyes of A Child)
TTITLE28=Don't Ever Leave Me Again
TTITLE29=Stop  Look And Listen
TTITLE30=Shoes
TTITLE31=A Poor Man's Roses (Or A Rich Man's Gold)
EXTD=
EXTT0=
EXTT1=
EXTT2=
EXTT3=
EXTT4=
EXTT5=
EXTT6=
EXTT7=
EXTT8=
EXTT9=
EXTT10=
EXTT11=
EXTT12=
EXTT13=
EXTT14=
EXTT15=
EXTT16=
EXTT17=
EXTT18=
EXTT19=
EXTT20=
EXTT21=
EXTT22=
EXTT23=
EXTT24=
EXTT25=
EXTT26=
EXTT27=
EXTT28=
EXTT29=
EXTT30=
EXTT31=
PLAYORDER=
